<?xml version="1.0" standalone="no"?>
<!DOCTYPE svg PUBLIC "-//W3C//DTD SVG 20010904//EN"
 "http://www.w3.org/TR/2001/REC-SVG-20010904/DTD/svg10.dtd">
<svg version="1.0" xmlns="http://www.w3.org/2000/svg"
 width="820.000000pt" height="820.000000pt" viewBox="0 0 820.000000 820.000000"
 preserveAspectRatio="xMidYMid meet">
<metadata>
Created by potrace 1.11, written by Peter Selinger 2001-2013
</metadata>
<g transform="translate(0.000000,820.000000) scale(0.100000,-0.100000)"
fill="#000000" stroke="none">
<path d="M4005 7712 c-2 -3 -26 -6 -52 -7 -27 -2 -66 -5 -88 -8 -22 -3 -67 -9
-99 -12 -33 -3 -62 -8 -65 -10 -6 -3 -26 -7 -116 -20 -119 -19 -514 -135 -610
-179 -16 -8 -66 -29 -110 -47 -148 -62 -359 -174 -497 -266 -40 -26 -77 -50
-83 -52 -5 -2 -14 -8 -20 -13 -5 -4 -62 -47 -125 -95 -63 -48 -121 -94 -130
-103 -9 -8 -45 -39 -79 -69 -128 -110 -266 -256 -403 -425 -10 -11 -23 -28
-30 -36 -23 -26 -92 -123 -143 -200 -28 -41 -52 -77 -55 -80 -3 -3 -14 -22
-25 -42 -11 -21 -24 -38 -29 -38 -5 0 -6 -3 -3 -6 4 -4 -2 -19 -12 -33 -67
-94 -260 -520 -286 -631 -4 -15 -17 -55 -39 -115 -6 -16 -12 -34 -13 -40 -1
-5 -9 -39 -18 -75 -21 -83 -25 -100 -31 -130 -3 -14 -9 -41 -14 -60 -5 -19
-11 -51 -14 -70 -3 -19 -8 -46 -11 -60 -3 -14 -7 -47 -10 -75 -2 -27 -7 -61
-9 -75 -13 -69 -27 -285 -28 -425 0 -60 12 -308 16 -330 2 -11 7 -47 10 -80
10 -86 16 -138 21 -155 2 -8 7 -35 10 -60 4 -24 8 -48 11 -51 2 -4 6 -24 10
-44 7 -47 11 -62 23 -103 5 -18 10 -35 10 -37 1 -3 1 -6 2 -7 0 -2 2 -10 4
-18 14 -68 100 -333 131 -405 10 -22 18 -42 19 -45 10 -34 126 -281 136 -290
3 -3 12 -20 20 -37 8 -18 17 -33 21 -33 5 0 8 -6 8 -12 0 -7 26 -54 57 -106
32 -51 63 -101 68 -111 6 -10 18 -25 28 -35 9 -10 17 -23 17 -31 0 -7 3 -15 8
-17 4 -1 30 -34 57 -71 28 -38 76 -100 108 -137 55 -66 67 -98 49 -128 -6 -9
-19 -2 -49 25 -86 82 -117 107 -195 159 -45 30 -87 54 -93 54 -7 0 -18 7 -25
15 -7 8 -16 12 -21 9 -5 -3 -9 0 -9 5 0 6 -9 11 -20 11 -11 0 -20 4 -20 10 0
5 -3 9 -7 8 -5 -1 -26 6 -47 15 -22 10 -51 20 -65 24 -14 3 -31 10 -37 14 -12
10 -13 4 -16 -77 l-1 -56 -31 5 c-17 3 -45 9 -62 12 l-31 7 3 -49 c3 -83 35
-288 44 -288 1 0 4 -11 6 -25 13 -72 100 -262 158 -345 53 -75 208 -224 233
-225 6 0 13 -3 15 -7 4 -11 75 -55 121 -77 41 -19 49 -38 15 -36 -13 1 -25 1
-28 1 -3 -1 -32 -4 -65 -6 -33 -3 -89 -7 -125 -10 -36 -3 -92 -7 -125 -10 -33
-2 -85 -7 -115 -10 -30 -3 -77 -8 -105 -11 -27 -2 -66 -7 -85 -9 -19 -3 -64
-8 -100 -11 -36 -3 -74 -8 -85 -10 -11 -2 -40 -7 -65 -10 -25 -3 -56 -8 -70
-10 -14 -3 -41 -7 -60 -10 -19 -3 -44 -6 -55 -8 -11 -1 -38 -7 -60 -11 -22 -5
-47 -9 -55 -10 -8 -1 -35 -8 -60 -15 -25 -7 -49 -13 -55 -15 -5 -1 -18 -5 -27
-9 -9 -4 -23 -8 -30 -10 -24 -3 -88 -45 -95 -61 -9 -26 32 -59 105 -85 37 -14
69 -25 72 -25 7 -1 71 -14 98 -20 44 -10 58 -13 127 -24 39 -7 84 -14 100 -17
17 -3 48 -7 70 -10 22 -2 54 -6 70 -9 17 -2 53 -7 80 -10 28 -3 70 -8 95 -11
25 -3 63 -6 85 -8 51 -5 157 -15 215 -21 25 -3 83 -8 130 -11 47 -3 103 -7
125 -9 134 -10 233 -17 325 -21 58 -3 139 -7 180 -9 182 -11 275 -15 415 -20
83 -3 206 -7 275 -10 69 -3 223 -7 343 -9 120 -3 221 -7 224 -10 3 -3 14 -1
24 5 11 5 19 6 19 1 0 -12 1790 -13 1812 -1 9 5 19 5 22 0 3 -4 18 -7 33 -5
16 2 111 6 213 9 351 8 836 26 1085 41 50 2 122 7 160 9 39 2 70 4 70 5 0 0
43 3 95 5 118 6 209 12 280 19 30 3 84 8 120 11 126 10 195 17 230 21 19 2 55
6 80 9 148 15 250 28 385 51 50 9 99 17 110 19 115 18 291 76 311 102 7 10 14
23 14 30 0 14 -61 63 -79 63 -6 0 -19 4 -29 9 -18 10 -109 35 -127 36 -7 0
-11 199 -13 572 l-2 572 -33 10 c-100 33 -327 32 -404 -2 l-28 -12 0 -530 0
-530 -25 1 c-14 1 -47 5 -75 8 -27 4 -70 9 -95 11 -25 2 -74 6 -110 10 -36 4
-82 8 -103 10 -21 2 -41 6 -44 9 -3 3 -13 1 -23 -4 -10 -5 -20 -6 -24 -3 -4 4
-17 8 -29 9 -12 1 -71 4 -132 8 -60 4 -130 9 -155 11 -25 2 -71 5 -102 6 -32
1 -55 6 -52 10 3 5 12 9 20 9 8 0 14 4 14 9 0 5 8 11 18 14 18 6 68 35 89 52
6 6 29 24 49 40 21 17 46 39 55 50 10 11 30 34 44 50 36 40 93 159 103 215 5
25 8 72 7 106 -2 51 -7 69 -34 107 -17 26 -41 51 -51 57 -27 14 -25 21 13 62
54 58 90 100 132 153 22 27 45 55 50 62 94 114 242 343 330 509 26 49 50 94
53 99 4 6 7 15 8 20 1 6 17 42 37 82 19 39 47 105 62 145 14 40 31 82 36 93
13 30 78 231 83 260 3 13 7 28 10 33 3 5 7 19 10 33 3 13 10 44 17 69 14 60
18 79 23 115 2 17 7 37 10 45 3 8 8 33 10 55 3 22 7 49 9 60 3 11 8 47 11 80
4 33 9 71 11 85 22 137 23 539 1 725 -3 22 -8 67 -12 100 -3 33 -8 69 -11 80
-2 11 -10 56 -18 100 -18 100 -23 122 -29 143 -3 9 -8 32 -11 51 -3 19 -10 43
-16 53 -6 11 -8 22 -5 25 3 3 -1 18 -9 33 -8 15 -12 30 -9 33 3 3 1 13 -4 24
-6 10 -25 63 -43 118 -32 99 -109 297 -134 345 -7 14 -36 70 -63 125 -75 152
-240 423 -264 433 -5 2 -8 9 -8 16 0 7 -8 21 -18 32 -10 10 -42 51 -72 89 -30
39 -59 75 -64 81 -6 6 -31 36 -56 65 -80 95 -293 303 -400 389 -30 25 -60 49
-66 55 -6 5 -24 20 -40 32 -16 12 -50 37 -77 57 -26 20 -51 36 -56 36 -5 0
-11 4 -13 8 -3 7 -126 92 -134 92 -2 0 -28 16 -58 35 -72 46 -319 172 -421
214 -44 18 -93 39 -110 46 -97 42 -438 143 -495 148 -11 1 -20 5 -20 10 0 4
-4 6 -8 3 -4 -3 -26 -1 -48 5 -21 5 -57 11 -78 14 -22 3 -58 10 -80 14 -23 5
-48 9 -56 9 -8 -1 -40 3 -70 7 -30 4 -73 9 -95 12 -58 7 -564 11 -570 5z
m-2844 -5571 c134 -64 184 -93 233 -136 16 -14 32 -25 36 -25 4 0 42 -34 85
-74 77 -75 77 -75 72 -118 -4 -24 -6 -48 -6 -53 -1 -6 -34 21 -74 60 -110 107
-263 201 -417 256 -36 12 -67 26 -70 30 -4 6 -5 60 -1 103 2 15 53 -1 142 -43z
m1310 -932 c56 -33 113 -65 125 -70 42 -15 26 -24 -49 -25 -39 -1 -148 -5
-242 -9 l-170 -7 60 41 c33 22 83 60 110 85 28 25 53 45 57 46 3 0 52 -27 109
-61z"/>
</g>
</svg>
